<?xml version="1.0" encoding="UTF-8"?>
<svg xmlns="http://www.w3.org/2000/svg" xmlns:xlink="http://www.w3.org/1999/xlink" width="490pt" height="490pt" viewBox="0 0 490 490" version="1.1">
<g id="surface1">
<path style=" stroke:none;fill-rule:nonzero;fill:rgb(0%,0%,0%);fill-opacity:1;" d="M 189.824219 139.355469 C 189.042969 141.609375 191.101562 145.433594 195.3125 149.644531 C 199.039062 153.566406 199.332031 154.152344 199.039062 158.957031 C 198.941406 161.796875 197.960938 166.992188 196.882812 170.421875 C 193.746094 180.808594 194.921875 186.789062 200.800781 190.414062 C 202.175781 191.296875 203.9375 192.375 204.527344 192.863281 C 205.507812 193.453125 205.210938 198.351562 203.351562 215.109375 C 201.976562 226.96875 200.898438 237.648438 200.898438 238.925781 C 200.898438 240.6875 202.371094 241.765625 209.523438 245.097656 C 217.65625 248.921875 218.246094 249.019531 222.753906 248.039062 C 229.515625 246.46875 232.945312 246.664062 234.023438 248.625 C 234.710938 249.703125 236.671875 250.390625 240.492188 250.683594 C 247.15625 251.175781 249.214844 249.800781 250.78125 243.726562 C 252.449219 237.0625 254.308594 235.59375 260.875 236.082031 C 262.738281 236.179688 270.089844 246.175781 273.421875 253.132812 C 276.164062 259.015625 280.183594 261.660156 286.257812 261.660156 C 291.746094 261.660156 296.742188 258.621094 299.097656 253.820312 C 300.664062 250.683594 300.859375 246.664062 300.859375 212.660156 C 300.859375 172.480469 300.46875 168.65625 295.863281 159.542969 C 293.214844 154.253906 285.964844 146.707031 280.867188 143.667969 C 271.949219 138.472656 269.304688 138.179688 228.242188 138.179688 C 198.742188 138.179688 190.21875 138.472656 189.824219 139.355469 Z M 233.632812 142.980469 C 234.613281 144.550781 229.808594 150.429688 224.617188 153.859375 C 221.773438 155.722656 219.519531 157.976562 219.519531 158.859375 C 219.519531 160.230469 218.34375 160.621094 212.757812 160.914062 C 202.957031 161.40625 202.859375 161.308594 202.859375 156.015625 C 202.859375 151.898438 202.46875 151.117188 199.429688 148.664062 C 197.566406 147.195312 195.609375 145.136719 195.019531 144.058594 C 194.039062 142.101562 194.335938 142.101562 213.542969 142.101562 C 224.320312 142.101562 233.339844 142.492188 233.632812 142.980469 Z M 273.617188 144.941406 C 281.359375 147.980469 288.316406 154.449219 292.136719 162.289062 C 298.117188 174.441406 296.941406 182.769531 288.21875 188.453125 C 284.691406 190.804688 275.675781 193.84375 275.085938 192.960938 C 274.988281 192.765625 273.617188 190.023438 272.144531 186.789062 C 270.578125 183.652344 266.953125 178.457031 263.914062 175.320312 L 258.523438 169.636719 L 260.582031 166.796875 C 261.660156 165.226562 263.425781 161.894531 264.503906 159.445312 C 267.050781 153.566406 265.972656 152.585938 258.523438 153.761719 C 252.054688 154.839844 246.960938 156.898438 245.097656 159.054688 C 244.019531 160.425781 241.863281 160.71875 233.140625 160.71875 C 227.261719 160.71875 222.460938 160.425781 222.460938 159.9375 C 222.460938 159.542969 224.027344 158.367188 225.988281 157.289062 C 230.496094 154.839844 235.886719 148.566406 236.671875 144.84375 L 237.355469 141.902344 L 252.742188 142.296875 C 265.578125 142.6875 268.910156 143.078125 273.617188 144.941406 Z M 261.660156 157.289062 C 261.660156 158.761719 257.640625 165.425781 255.585938 167.285156 C 251.175781 171.402344 239.121094 175.421875 239.121094 172.675781 C 239.121094 170.910156 245 162.679688 247.351562 161.113281 C 252.054688 158.074219 261.660156 155.527344 261.660156 157.289062 Z M 237.945312 166.011719 C 238.042969 166.207031 237.257812 168.363281 236.179688 170.910156 C 235.003906 173.363281 234.414062 175.910156 234.808594 176.496094 C 235.691406 178.066406 245.195312 176.792969 250.488281 174.539062 L 254.605469 172.675781 L 258.035156 175.519531 C 262.640625 179.242188 269.304688 189.335938 270.089844 193.648438 C 270.578125 196.097656 271.460938 197.371094 273.125 198.058594 C 275.574219 198.941406 275.773438 200.898438 273.617188 201.683594 C 272.929688 201.878906 272.636719 201.488281 273.027344 200.507812 C 273.320312 199.625 273.125 198.941406 272.539062 198.941406 C 271.949219 198.941406 271.460938 199.820312 271.460938 200.898438 C 271.460938 201.976562 272.046875 202.859375 272.734375 202.859375 C 273.617188 202.859375 274.007812 204.035156 274.007812 206.191406 C 273.910156 208.054688 273.617188 209.328125 273.222656 209.035156 C 272.441406 208.640625 272.144531 217.265625 272.441406 232.945312 C 272.539062 237.945312 272.34375 242.058594 272.144531 242.058594 C 271.851562 242.058594 269.792969 239.609375 267.539062 236.570312 L 263.425781 231.085938 L 258.035156 231.476562 C 251.566406 232.0625 249.410156 233.925781 247.058594 241.179688 C 245.488281 245.980469 245 246.46875 242.257812 246.765625 C 240.296875 246.960938 238.042969 246.273438 235.984375 244.804688 C 234.21875 243.53125 232.554688 242.453125 232.457031 242.355469 C 232.261719 242.257812 233.4375 240.199219 235.101562 237.746094 C 236.769531 235.394531 238.140625 232.652344 238.140625 231.867188 C 238.140625 228.632812 235.59375 230.59375 231.867188 236.472656 C 228.4375 242.15625 227.753906 242.746094 223.34375 243.726562 C 218.835938 244.804688 218.148438 244.707031 212.171875 241.960938 C 208.640625 240.296875 205.800781 238.726562 205.800781 238.53125 C 205.800781 238.238281 207.859375 237.160156 210.308594 236.179688 C 216.1875 233.632812 215.992188 230.886719 209.914062 230.496094 C 207.660156 230.300781 205.800781 229.90625 205.800781 229.515625 C 205.800781 229.125 206.683594 221.089844 207.761719 211.679688 C 208.839844 202.273438 209.71875 193.746094 209.71875 192.863281 C 209.71875 191.882812 207.859375 190.023438 205.308594 188.550781 C 198.253906 184.4375 197.46875 181.203125 200.898438 170.8125 L 202.957031 164.933594 L 220.304688 165.324219 C 229.808594 165.621094 237.746094 165.914062 237.945312 166.011719 Z M 295.960938 199.921875 L 295.960938 213.542969 L 293.019531 216.972656 C 289.980469 220.402344 284.101562 223.734375 279.105469 224.910156 L 276.359375 225.597656 L 276.359375 210.796875 C 276.359375 198.449219 276.554688 196 277.828125 196 C 280.964844 196 289.785156 191.980469 292.53125 189.238281 C 294.195312 187.570312 295.566406 186.296875 295.765625 186.296875 C 295.863281 186.199219 295.960938 192.375 295.960938 199.921875 Z M 295.960938 235.789062 L 295.960938 252.054688 L 293.117188 254.898438 C 290.863281 257.152344 289.394531 257.738281 286.160156 257.738281 C 282.925781 257.738281 281.457031 257.152344 279.203125 254.898438 C 276.359375 252.054688 276.359375 251.957031 276.359375 240.199219 C 276.359375 228.535156 276.359375 228.339844 278.613281 228.339844 C 281.359375 228.339844 292.136719 223.34375 293.902344 221.1875 C 294.589844 220.207031 295.371094 219.519531 295.566406 219.519531 C 295.765625 219.519531 295.960938 226.871094 295.960938 235.789062 Z M 295.960938 235.789062 "/>
</g>
</svg>
