<?xml version="1.0" encoding="UTF-8"?>
<svg xmlns="http://www.w3.org/2000/svg" xmlns:xlink="http://www.w3.org/1999/xlink" width="50pt" height="50pt" viewBox="0 0 50 50" version="1.1">
<g id="surface1">
<path style=" stroke:none;fill-rule:nonzero;fill:rgb(0%,0%,0%);fill-opacity:1;" d="M 22.335938 12.382812 C 20.816406 15.015625 19.5 17.179688 19.433594 17.179688 C 19.367188 17.179688 18.917969 16.820312 18.453125 16.398438 C 17.15625 15.214844 16.886719 14.347656 17.070312 11.980469 C 17.222656 10.128906 17.203125 9.996094 16.820312 10.085938 C 16.554688 10.128906 16.066406 10.800781 15.550781 11.824219 C 14.769531 13.339844 14.703125 13.609375 14.792969 14.792969 C 14.925781 16.398438 15.75 18.140625 16.933594 19.273438 C 17.714844 20.035156 17.78125 20.191406 17.582031 20.660156 C 17.3125 21.214844 16.867188 21.351562 16.621094 20.972656 C 16.554688 20.859375 15.660156 20.347656 14.65625 19.855469 C 12.671875 18.875 12.316406 18.851562 10.953125 19.679688 C 10.085938 20.210938 9.257812 21.84375 9.480469 22.558594 C 9.707031 23.226562 10.976562 25.210938 11.175781 25.210938 C 11.289062 25.210938 11.535156 25.410156 11.757812 25.632812 C 11.980469 25.859375 12.582031 26.171875 13.117188 26.304688 C 13.632812 26.460938 14.054688 26.59375 14.054688 26.636719 C 14.054688 26.683594 12.003906 30.253906 9.503906 34.605469 L 4.929688 42.5 L 15.082031 42.566406 C 20.683594 42.59375 29.738281 42.59375 35.25 42.566406 L 45.269531 42.5 L 40.828125 34.804688 C 38.375 30.566406 36.363281 27.039062 36.363281 26.929688 C 36.363281 26.839844 36.679688 26.703125 37.035156 26.617188 C 37.414062 26.550781 37.707031 26.414062 37.707031 26.304688 C 37.707031 26.214844 37.882812 26.082031 38.105469 25.992188 C 38.351562 25.925781 38.640625 25.632812 38.777344 25.320312 C 38.910156 25.03125 39.398438 24.363281 39.871094 23.871094 C 40.558594 23.089844 40.691406 22.78125 40.671875 22.019531 C 40.605469 20.394531 39.425781 19.457031 37.394531 19.433594 C 36.746094 19.410156 36.1875 19.632812 35.027344 20.414062 C 34.199219 20.972656 33.398438 21.417969 33.265625 21.417969 C 33.128906 21.417969 32.863281 21.082031 32.664062 20.683594 L 32.328125 19.96875 L 33.800781 18.472656 C 35.917969 16.289062 37.75 12.359375 37.035156 11.488281 C 36.65625 11.042969 36.230469 11.289062 35.609375 12.359375 C 34.984375 13.453125 32.617188 15.730469 31.390625 16.464844 L 30.566406 16.933594 L 30.253906 16.441406 C 30.074219 16.175781 28.867188 14.101562 27.554688 11.824219 C 26.238281 9.546875 25.144531 7.675781 25.121094 7.652344 C 25.097656 7.632812 23.828125 9.75 22.335938 12.382812 Z M 27.332031 13.339844 C 28.402344 15.214844 29.25 16.777344 29.203125 16.84375 C 29.136719 16.886719 28.714844 16.84375 28.222656 16.734375 C 27.734375 16.621094 27.039062 16.511719 26.664062 16.511719 C 26.238281 16.511719 25.792969 16.289062 25.457031 15.953125 C 24.875 15.328125 23.601562 15.128906 24.09375 15.730469 C 24.339844 16.019531 24.25 16.066406 23.449219 16.066406 C 22.355469 16.066406 21.417969 16.464844 21.863281 16.734375 C 22.066406 16.867188 21.929688 17.023438 21.4375 17.292969 C 21.039062 17.492188 20.660156 17.601562 20.617188 17.558594 C 20.546875 17.492188 21.53125 15.683594 22.78125 13.519531 C 24.027344 11.332031 25.121094 9.640625 25.210938 9.75 C 25.300781 9.839844 26.257812 11.46875 27.332031 13.339844 Z M 35.675781 14.433594 C 34.804688 16.132812 33.242188 17.558594 31.03125 18.628906 C 29.761719 19.253906 29.515625 19.65625 30.1875 20.101562 C 30.453125 20.28125 31.011719 21.820312 31.011719 22.421875 C 31.03125 22.824219 31.058594 22.824219 31.300781 22.511719 C 31.480469 22.265625 31.8125 22.199219 32.394531 22.265625 C 33.222656 22.355469 34.421875 21.820312 36.054688 20.59375 C 36.992188 19.902344 38.21875 19.902344 38.933594 20.636719 C 39.625 21.304688 39.6875 21.753906 39.066406 21.417969 C 38.820312 21.304688 38.417969 21.195312 38.152344 21.195312 C 37.773438 21.195312 37.726562 21.261719 37.929688 21.621094 C 38.328125 22.402344 38.21875 22.597656 37.347656 22.421875 C 36.613281 22.289062 36.566406 22.308594 36.703125 22.734375 C 36.835938 23.15625 36.789062 23.179688 36.277344 22.980469 L 35.71875 22.78125 L 36.074219 23.535156 C 36.546875 24.519531 36.390625 24.675781 35.453125 24.117188 C 34.492188 23.535156 34.023438 23.515625 34.246094 24.027344 C 34.335938 24.25 34.46875 24.675781 34.539062 24.988281 L 34.648438 25.542969 L 34.046875 25.011719 L 33.464844 24.472656 L 33.464844 25.457031 C 33.464844 26.015625 33.332031 26.636719 33.175781 26.863281 C 32.90625 27.242188 32.839844 27.242188 32.507812 26.90625 C 32.171875 26.550781 32.171875 26.503906 32.597656 26.082031 C 33.109375 25.570312 33.066406 24.855469 32.527344 24.898438 C 32.304688 24.921875 32.21875 24.808594 32.285156 24.632812 C 32.351562 24.453125 32.574219 24.316406 32.773438 24.316406 C 33.066406 24.316406 33.085938 24.277344 32.820312 24.117188 C 32.351562 23.828125 31.8125 24.164062 31.257812 25.078125 C 30.675781 26.015625 30.65625 27.109375 31.214844 28.199219 C 31.480469 28.714844 31.613281 29.292969 31.546875 29.738281 C 31.390625 30.675781 32.394531 33.445312 33.066406 33.957031 C 34.066406 34.738281 34.132812 34.828125 34.132812 35.359375 C 34.132812 35.675781 34 35.917969 33.867188 35.917969 C 33.710938 35.917969 33.445312 36.1875 33.308594 36.523438 C 32.773438 37.683594 33.085938 38.152344 33.777344 37.214844 L 34.160156 36.703125 L 34 37.261719 C 33.800781 38.015625 33.488281 38.375 33.019531 38.375 C 32.394531 38.375 32.015625 37.773438 32.285156 37.191406 C 32.507812 36.703125 32.460938 36.679688 31.703125 36.679688 C 31.257812 36.679688 30.609375 36.589844 30.253906 36.5 C 29.648438 36.324219 29.628906 36.324219 29.898438 36.8125 C 30.5 37.929688 29.027344 39.398438 28.179688 38.527344 C 27.863281 38.21875 27.910156 38.195312 28.578125 38.21875 C 29.136719 38.265625 29.339844 38.152344 29.40625 37.859375 C 29.496094 37.414062 28.867188 36.589844 28.445312 36.589844 C 28.289062 36.589844 28.042969 36.457031 27.910156 36.277344 C 27.621094 35.941406 27.910156 35.609375 28.671875 35.40625 C 28.914062 35.359375 28.671875 35.292969 28.132812 35.273438 C 27.484375 35.25 26.996094 35.386719 26.730469 35.628906 C 26.304688 36.007812 26.191406 37.011719 26.527344 37.371094 C 26.636719 37.503906 26.796875 37.929688 26.886719 38.304688 C 27.019531 38.953125 26.953125 39.066406 26.441406 39.3125 C 26.101562 39.445312 25.902344 39.6875 25.96875 39.871094 C 26.148438 40.316406 25.8125 40.203125 25.144531 39.578125 C 24.539062 39.042969 24.519531 38.910156 24.652344 37.839844 C 24.742188 37.214844 25.1875 36.007812 25.632812 35.136719 C 26.347656 33.753906 26.527344 33.578125 27.285156 33.398438 C 28.089844 33.195312 28.445312 32.796875 27.800781 32.796875 C 27.308594 32.796875 26.148438 31.457031 25.746094 30.410156 C 25.542969 29.871094 25.410156 29.382812 25.476562 29.339844 C 25.523438 29.273438 25.949219 29.425781 26.414062 29.648438 C 26.886719 29.898438 27.195312 29.964844 27.128906 29.832031 C 27.0625 29.671875 26.886719 29.117188 26.730469 28.558594 C 26.480469 27.621094 26.441406 27.597656 26.328125 28.179688 C 26.214844 28.734375 26.082031 28.558594 24.699219 26.214844 C 23.851562 24.808594 23.136719 23.648438 23.089844 23.648438 C 23.046875 23.648438 23.113281 23.960938 23.226562 24.363281 C 23.449219 25.1875 23.378906 25.34375 22.957031 24.945312 C 21.796875 23.804688 20.839844 23.601562 20.171875 24.339844 C 19.746094 24.808594 19.746094 24.832031 20.210938 24.675781 C 20.527344 24.585938 20.792969 24.652344 20.992188 24.898438 C 21.261719 25.234375 21.242188 25.253906 20.816406 25.121094 C 20.546875 25.03125 20.125 25.078125 19.855469 25.210938 C 19.609375 25.34375 19.410156 25.390625 19.410156 25.320312 C 19.410156 25.03125 19.945312 24.183594 20.503906 23.5625 L 21.082031 22.890625 L 20.480469 23.269531 C 20.144531 23.46875 19.632812 23.648438 19.320312 23.648438 C 19.011719 23.648438 18.519531 23.738281 18.203125 23.871094 C 17.804688 24.007812 17.625 24.007812 17.625 23.851562 C 17.625 23.714844 17.425781 23.671875 17.179688 23.761719 C 16.957031 23.828125 16.398438 23.828125 15.953125 23.738281 C 15.304688 23.628906 15.167969 23.515625 15.28125 23.179688 C 15.4375 22.691406 15.261719 22.667969 13.941406 22.980469 C 13.453125 23.089844 13.03125 23.15625 13.003906 23.113281 C 12.964844 23.070312 13.164062 22.78125 13.410156 22.421875 L 13.902344 21.820312 L 12.984375 21.976562 C 12.359375 22.066406 12.046875 22.042969 12.046875 21.886719 C 12.046875 21.753906 11.847656 21.640625 11.601562 21.640625 C 10.953125 21.640625 11.132812 20.570312 11.847656 20.035156 C 12.382812 19.609375 12.425781 19.632812 13.496094 20.078125 C 14.101562 20.347656 15.167969 20.90625 15.910156 21.351562 C 17 22 17.335938 22.109375 18.027344 22 C 18.472656 21.910156 19.050781 21.84375 19.300781 21.820312 C 19.542969 21.796875 20.191406 21.484375 20.726562 21.148438 C 21.707031 20.527344 21.730469 20.527344 21.0625 20.527344 C 20.480469 20.503906 20.460938 20.480469 20.816406 20.210938 C 21.304688 19.832031 21.304688 19.632812 20.769531 19.632812 C 20.101562 19.632812 17.667969 17.691406 16.976562 16.597656 C 16.375 15.660156 15.910156 14.144531 16.152344 13.902344 C 16.199219 13.832031 16.375 14.191406 16.511719 14.703125 C 17 16.511719 18.917969 18.074219 20.972656 18.316406 C 21.640625 18.40625 22.625 18.605469 23.136719 18.761719 C 24.09375 19.050781 24.675781 18.898438 24.09375 18.496094 C 23.851562 18.339844 23.960938 18.316406 24.5 18.40625 C 25.410156 18.585938 25.433594 18.203125 24.519531 17.738281 C 24.164062 17.535156 23.648438 17.179688 23.40625 16.933594 C 22.980469 16.511719 22.980469 16.511719 23.5625 16.511719 C 23.871094 16.511719 24.316406 16.621094 24.566406 16.734375 C 24.875 16.910156 24.988281 16.886719 24.988281 16.710938 C 24.988281 16.53125 25.144531 16.578125 25.390625 16.800781 C 25.613281 17.023438 26.148438 17.179688 26.570312 17.203125 C 26.996094 17.203125 27.195312 17.269531 27.0625 17.335938 C 26.304688 17.625 27.417969 18.296875 28.644531 18.296875 C 30.230469 18.296875 34.179688 15.640625 35.585938 13.632812 C 36.5 12.292969 36.566406 12.714844 35.675781 14.433594 Z M 39.3125 34.089844 C 41.476562 37.859375 43.328125 41.117188 43.417969 41.320312 C 43.550781 41.699219 43.171875 41.722656 37.234375 41.699219 C 31.390625 41.675781 30.992188 41.65625 31.949219 41.367188 C 32.90625 41.050781 33.019531 40.941406 33.890625 39.289062 C 34.691406 37.75 34.804688 37.347656 34.804688 36.054688 C 34.804688 34.761719 34.738281 34.492188 34.246094 34.023438 C 33.957031 33.710938 33.621094 33.464844 33.511719 33.464844 C 33.398438 33.464844 33.195312 33.195312 33.042969 32.886719 C 32.839844 32.417969 32.863281 31.859375 33.128906 30.140625 C 33.332031 28.960938 33.601562 27.734375 33.753906 27.417969 C 33.957031 26.886719 34.066406 26.863281 34.671875 27.039062 C 35.273438 27.242188 35.832031 28.066406 39.3125 34.089844 Z M 19.121094 35.917969 C 19.523438 37.234375 19.609375 37.394531 19.566406 36.722656 C 19.5 35.988281 19.542969 35.917969 19.722656 36.253906 C 19.855469 36.476562 20.347656 37.058594 20.816406 37.523438 C 21.285156 37.996094 21.640625 38.460938 21.597656 38.554688 C 21.261719 39.242188 20.527344 40.359375 19.988281 40.984375 C 19.253906 41.855469 19.03125 41.855469 16.734375 41.183594 C 16.066406 40.984375 14.992188 40.828125 14.367188 40.828125 C 13.097656 40.828125 12.160156 40.292969 11.804688 39.332031 C 11.601562 38.796875 12.203125 36.363281 12.539062 36.363281 C 12.628906 36.363281 12.851562 36.632812 13.03125 36.96875 L 13.363281 37.59375 L 13.386719 36.992188 C 13.386719 36.65625 13.496094 36.121094 13.609375 35.785156 L 13.855469 35.183594 L 14.414062 35.71875 C 14.945312 36.210938 14.992188 36.230469 14.925781 35.808594 C 14.835938 35.320312 15.371094 33.289062 15.617188 33.128906 C 15.683594 33.085938 16.289062 34.089844 16.957031 35.386719 C 17.601562 36.679688 18.183594 37.683594 18.230469 37.617188 C 18.269531 37.570312 18.117188 36.65625 17.871094 35.585938 C 17.601562 34.515625 17.402344 33.289062 17.402344 32.839844 L 17.425781 32.015625 L 18.007812 33.128906 C 18.339844 33.734375 18.828125 35.003906 19.121094 35.917969 Z M 24.316406 40.046875 C 24.472656 40.46875 24.742188 40.625 25.433594 40.738281 C 25.992188 40.828125 26.441406 41.050781 26.570312 41.296875 C 26.773438 41.699219 26.636719 41.722656 23.714844 41.722656 L 20.660156 41.722656 L 21.753906 40.605469 C 23.046875 39.3125 23.960938 39.109375 24.316406 40.046875 Z M 24.316406 40.046875 "/>
</g>
</svg>
