<?xml version="1.0" encoding="UTF-8"?>
<svg xmlns="http://www.w3.org/2000/svg" xmlns:xlink="http://www.w3.org/1999/xlink" width="300pt" height="300pt" viewBox="0 0 300 300" version="1.1">
<g id="surface1">
<path style=" stroke:none;fill-rule:nonzero;fill:rgb(0%,0%,0%);fill-opacity:1;" d="M 132.953125 73.707031 C 123.90625 89.378906 116.070312 102.261719 115.675781 102.261719 C 115.28125 102.261719 112.605469 100.121094 109.839844 97.609375 C 102.121094 90.566406 100.515625 85.402344 101.609375 71.3125 C 102.515625 60.292969 102.398438 59.5 100.121094 60.035156 C 98.539062 60.292969 95.632812 64.289062 92.5625 70.382812 C 87.914062 79.402344 87.519531 81.007812 88.054688 88.054688 C 88.84375 97.609375 93.75 107.980469 100.796875 114.722656 C 105.445312 119.257812 105.839844 120.1875 104.65625 122.976562 C 103.050781 126.277344 100.398438 127.09375 98.933594 124.835938 C 98.539062 124.164062 93.214844 121.117188 87.238281 118.1875 C 75.429688 112.351562 73.3125 112.210938 65.195312 117.140625 C 60.035156 120.304688 55.105469 130.023438 56.429688 134.277344 C 57.78125 138.253906 65.335938 150.066406 66.523438 150.066406 C 67.195312 150.066406 68.660156 151.25 69.988281 152.578125 C 71.3125 153.925781 74.894531 155.785156 78.078125 156.574219 C 81.148438 157.503906 83.660156 158.296875 83.660156 158.550781 C 83.660156 158.832031 71.453125 180.082031 56.570312 205.984375 L 29.34375 252.976562 L 89.773438 253.371094 C 123.117188 253.535156 177.011719 253.535156 209.820312 253.371094 L 269.460938 252.976562 L 243.023438 207.171875 C 228.421875 181.941406 216.449219 160.945312 216.449219 160.296875 C 216.449219 159.761719 218.332031 158.945312 220.449219 158.4375 C 222.703125 158.039062 224.445312 157.226562 224.445312 156.574219 C 224.445312 156.039062 225.492188 155.25 226.816406 154.714844 C 228.28125 154.320312 230.003906 152.578125 230.816406 150.714844 C 231.609375 148.996094 234.515625 145.019531 237.328125 142.089844 C 241.421875 137.441406 242.210938 135.601562 242.09375 131.070312 C 241.699219 121.394531 234.675781 115.816406 222.585938 115.675781 C 218.726562 115.535156 215.402344 116.863281 208.496094 121.511719 C 203.566406 124.835938 198.800781 127.488281 198.007812 127.488281 C 197.195312 127.488281 195.613281 125.488281 194.429688 123.117188 L 192.429688 118.863281 L 201.195312 109.957031 C 213.796875 96.957031 224.703125 73.566406 220.449219 68.382812 C 218.191406 65.730469 215.65625 67.195312 211.960938 73.566406 C 208.242188 80.078125 194.148438 93.632812 186.847656 98.003906 L 181.941406 100.796875 L 180.082031 97.867188 C 179.011719 96.285156 171.828125 83.9375 164.015625 70.382812 C 156.179688 56.828125 149.667969 45.6875 149.53125 45.550781 C 149.390625 45.433594 141.835938 58.035156 132.953125 73.707031 Z M 162.691406 79.402344 C 169.0625 90.566406 174.105469 99.863281 173.828125 100.261719 C 173.433594 100.515625 170.921875 100.261719 167.992188 99.609375 C 165.085938 98.933594 160.945312 98.285156 158.714844 98.285156 C 156.179688 98.285156 153.53125 96.957031 151.53125 94.960938 C 148.066406 91.238281 140.484375 90.054688 143.414062 93.632812 C 144.878906 95.355469 144.34375 95.632812 139.578125 95.632812 C 133.066406 95.632812 127.488281 98.003906 130.136719 99.609375 C 131.347656 100.398438 130.535156 101.328125 127.605469 102.933594 C 125.234375 104.121094 122.976562 104.769531 122.722656 104.515625 C 122.304688 104.121094 128.164062 93.355469 135.601562 80.472656 C 143.019531 67.453125 149.53125 57.382812 150.066406 58.035156 C 150.601562 58.570312 156.296875 68.265625 162.691406 79.402344 Z M 212.355469 85.914062 C 207.171875 96.027344 197.871094 104.515625 184.710938 110.886719 C 177.152344 114.605469 175.6875 117 179.6875 119.652344 C 181.269531 120.722656 184.59375 129.882812 184.59375 133.464844 C 184.710938 135.859375 184.871094 135.859375 186.3125 134 C 187.382812 132.535156 189.359375 132.136719 192.824219 132.535156 C 197.753906 133.066406 204.890625 129.882812 214.609375 122.582031 C 220.191406 118.464844 227.492188 118.464844 231.746094 122.835938 C 235.863281 126.8125 236.234375 129.488281 232.539062 127.488281 C 231.074219 126.8125 228.679688 126.164062 227.097656 126.164062 C 224.84375 126.164062 224.5625 126.558594 225.773438 128.695312 C 228.144531 133.347656 227.492188 134.511719 222.308594 133.464844 C 217.9375 132.671875 217.65625 132.789062 218.472656 135.324219 C 219.261719 137.835938 218.984375 137.972656 215.9375 136.789062 L 212.613281 135.601562 L 214.726562 140.089844 C 217.539062 145.949219 216.609375 146.878906 211.03125 143.554688 C 205.3125 140.089844 202.519531 139.972656 203.847656 143.019531 C 204.378906 144.34375 205.171875 146.878906 205.589844 148.738281 L 206.242188 152.042969 L 202.660156 148.878906 L 199.195312 145.671875 L 199.195312 151.53125 C 199.195312 154.855469 198.40625 158.550781 197.476562 159.902344 C 195.871094 162.15625 195.476562 162.15625 193.5 160.15625 C 191.5 158.039062 191.5 157.761719 194.035156 155.25 C 197.078125 152.203125 196.824219 147.949219 193.613281 148.203125 C 192.289062 148.34375 191.777344 147.671875 192.171875 146.625 C 192.570312 145.554688 193.894531 144.742188 195.078125 144.742188 C 196.824219 144.742188 196.941406 144.507812 195.359375 143.554688 C 192.570312 141.835938 189.359375 143.832031 186.058594 149.273438 C 182.59375 154.855469 182.476562 161.367188 185.800781 167.851562 C 187.382812 170.921875 188.175781 174.363281 187.777344 177.011719 C 186.847656 182.59375 192.824219 199.078125 196.824219 202.125 C 202.777344 206.777344 203.171875 207.308594 203.171875 210.472656 C 203.171875 212.355469 202.382812 213.796875 201.589844 213.796875 C 200.660156 213.796875 199.078125 215.402344 198.265625 217.402344 C 195.078125 224.308594 196.941406 227.097656 201.054688 221.515625 L 203.335938 218.472656 L 202.382812 221.796875 C 201.195312 226.285156 199.335938 228.421875 196.542969 228.421875 C 192.824219 228.421875 190.570312 224.84375 192.171875 221.378906 C 193.5 218.472656 193.21875 218.332031 188.710938 218.332031 C 186.058594 218.332031 182.199219 217.796875 180.082031 217.261719 C 176.480469 216.214844 176.363281 216.214844 177.96875 219.121094 C 181.546875 225.773438 172.78125 234.515625 167.734375 229.328125 C 165.851562 227.492188 166.132812 227.351562 170.109375 227.492188 C 173.433594 227.773438 174.640625 227.097656 175.039062 225.351562 C 175.570312 222.703125 171.828125 217.796875 169.316406 217.796875 C 168.386719 217.796875 166.921875 217.007812 166.132812 215.9375 C 164.410156 213.9375 166.132812 211.960938 170.664062 210.75 C 172.109375 210.472656 170.664062 210.078125 167.457031 209.960938 C 163.597656 209.820312 160.691406 210.636719 159.109375 212.078125 C 156.574219 214.332031 155.902344 220.308594 157.902344 222.445312 C 158.550781 223.238281 159.503906 225.773438 160.039062 228.003906 C 160.832031 231.863281 160.433594 232.539062 157.390625 234.003906 C 155.367188 234.792969 154.179688 236.234375 154.574219 237.328125 C 155.644531 239.980469 153.644531 239.304688 149.667969 235.585938 C 146.066406 232.398438 145.949219 231.609375 146.738281 225.238281 C 147.273438 221.515625 149.925781 214.332031 152.578125 209.148438 C 156.832031 200.917969 157.902344 199.871094 162.410156 198.800781 C 167.203125 197.589844 169.316406 195.21875 165.480469 195.21875 C 162.550781 195.21875 155.644531 187.246094 153.25 181.011719 C 152.042969 177.804688 151.25 174.898438 151.644531 174.640625 C 151.925781 174.246094 154.460938 175.152344 157.226562 176.480469 C 160.039062 177.96875 161.875 178.363281 161.480469 177.570312 C 161.085938 176.617188 160.039062 173.316406 159.109375 169.992188 C 157.621094 164.410156 157.390625 164.273438 156.714844 167.734375 C 156.039062 171.039062 155.25 169.992188 147.019531 156.039062 C 141.972656 147.671875 137.71875 140.765625 137.441406 140.765625 C 137.183594 140.765625 137.578125 142.625 138.253906 145.019531 C 139.578125 149.925781 139.160156 150.855469 136.648438 148.484375 C 129.742188 141.695312 124.046875 140.484375 120.070312 144.878906 C 117.535156 147.671875 117.535156 147.808594 120.304688 146.878906 C 122.1875 146.34375 123.769531 146.738281 124.953125 148.203125 C 126.558594 150.203125 126.441406 150.320312 123.90625 149.53125 C 122.304688 148.996094 119.792969 149.273438 118.1875 150.066406 C 116.722656 150.855469 115.535156 151.132812 115.535156 150.714844 C 115.535156 148.996094 118.722656 143.949219 122.046875 140.253906 L 125.488281 136.253906 L 121.90625 138.507812 C 119.90625 139.695312 116.863281 140.765625 115 140.765625 C 113.164062 140.765625 110.234375 141.300781 108.351562 142.089844 C 105.980469 142.902344 104.910156 142.902344 104.910156 141.972656 C 104.910156 141.160156 103.726562 140.902344 102.261719 141.4375 C 100.933594 141.835938 97.609375 141.835938 94.960938 141.300781 C 91.097656 140.648438 90.285156 139.972656 90.960938 137.972656 C 91.890625 135.066406 90.84375 134.929688 82.984375 136.789062 C 80.078125 137.441406 77.566406 137.835938 77.402344 137.578125 C 77.171875 137.324219 78.359375 135.601562 79.824219 133.464844 L 82.753906 129.882812 L 77.289062 130.8125 C 73.566406 131.347656 71.707031 131.207031 71.707031 130.277344 C 71.707031 129.488281 70.523438 128.8125 69.058594 128.8125 C 65.195312 128.8125 66.265625 122.441406 70.523438 119.257812 C 73.707031 116.722656 73.964844 116.863281 80.332031 119.511719 C 83.9375 121.117188 90.285156 124.441406 94.703125 127.09375 C 101.191406 130.953125 103.191406 131.601562 107.304688 130.953125 C 109.957031 130.417969 113.398438 130.023438 114.886719 129.882812 C 116.328125 129.742188 120.1875 127.882812 123.371094 125.882812 C 129.207031 122.1875 129.347656 122.1875 125.371094 122.1875 C 121.90625 122.046875 121.792969 121.90625 123.90625 120.304688 C 126.8125 118.046875 126.8125 116.863281 123.628906 116.863281 C 119.652344 116.863281 105.167969 105.304688 101.050781 98.796875 C 97.46875 93.214844 94.703125 84.195312 96.144531 82.753906 C 96.425781 82.332031 97.46875 84.472656 98.285156 87.519531 C 101.191406 98.285156 112.605469 107.585938 124.835938 109.027344 C 128.8125 109.5625 134.671875 110.746094 137.71875 111.675781 C 143.414062 113.398438 146.878906 112.492188 143.414062 110.097656 C 141.972656 109.164062 142.625 109.027344 145.832031 109.5625 C 151.25 110.628906 151.390625 108.351562 145.949219 105.585938 C 143.832031 104.375 140.765625 102.261719 139.324219 100.796875 C 136.789062 98.285156 136.789062 98.285156 140.253906 98.285156 C 142.089844 98.285156 144.742188 98.933594 146.230469 99.609375 C 148.066406 100.65625 148.738281 100.515625 148.738281 99.46875 C 148.738281 98.398438 149.667969 98.679688 151.132812 100.003906 C 152.460938 101.328125 155.644531 102.261719 158.15625 102.398438 C 160.691406 102.398438 161.875 102.792969 161.085938 103.191406 C 156.574219 104.910156 163.203125 108.910156 170.503906 108.910156 C 179.941406 108.910156 203.449219 93.097656 211.820312 81.148438 C 217.261719 73.171875 217.65625 75.683594 212.355469 85.914062 Z M 234.003906 202.914062 C 246.882812 225.351562 257.90625 244.746094 258.441406 245.953125 C 259.230469 248.210938 256.976562 248.347656 221.632812 248.210938 C 186.847656 248.070312 184.476562 247.953125 190.175781 246.234375 C 195.871094 244.351562 196.542969 243.699219 201.730469 233.863281 C 206.496094 224.703125 207.171875 222.308594 207.171875 214.609375 C 207.171875 206.914062 206.777344 205.3125 203.847656 202.519531 C 202.125 200.660156 200.125 199.195312 199.472656 199.195312 C 198.800781 199.195312 197.589844 197.589844 196.683594 195.753906 C 195.476562 192.964844 195.613281 189.640625 197.195312 179.410156 C 198.40625 172.386719 200.007812 165.085938 200.917969 163.203125 C 202.125 160.039062 202.777344 159.902344 206.378906 160.945312 C 209.960938 162.15625 213.285156 167.0625 234.003906 202.914062 Z M 113.816406 213.796875 C 116.210938 221.632812 116.722656 222.585938 116.464844 218.585938 C 116.070312 214.214844 116.328125 213.796875 117.398438 215.796875 C 118.1875 217.121094 121.117188 220.585938 123.90625 223.355469 C 126.699219 226.167969 128.8125 228.933594 128.558594 229.492188 C 126.558594 233.585938 122.1875 240.234375 118.976562 243.953125 C 114.605469 249.140625 113.28125 249.140625 99.609375 245.140625 C 95.632812 243.953125 89.238281 243.023438 85.519531 243.023438 C 77.960938 243.023438 72.382812 239.839844 70.265625 234.121094 C 69.058594 230.933594 72.636719 216.449219 74.636719 216.449219 C 75.171875 216.449219 76.496094 218.050781 77.566406 220.050781 L 79.542969 223.773438 L 79.683594 220.191406 C 79.683594 218.191406 80.332031 215.007812 81.007812 213.007812 L 82.472656 209.425781 L 85.796875 212.613281 C 88.960938 215.542969 89.238281 215.65625 88.84375 213.144531 C 88.308594 210.238281 91.496094 198.148438 92.960938 197.195312 C 93.355469 196.941406 96.957031 202.914062 100.933594 210.636719 C 104.769531 218.332031 108.234375 224.308594 108.515625 223.910156 C 108.746094 223.632812 107.839844 218.191406 106.375 211.820312 C 104.769531 205.449219 103.585938 198.148438 103.585938 195.476562 L 103.726562 190.570312 L 107.1875 197.195312 C 109.164062 200.800781 112.070312 208.355469 113.816406 213.796875 Z M 144.742188 238.375 C 145.671875 240.886719 147.273438 241.816406 151.390625 242.488281 C 154.714844 243.023438 157.390625 244.351562 158.15625 245.816406 C 159.367188 248.210938 158.550781 248.347656 141.160156 248.347656 L 122.976562 248.347656 L 129.488281 241.699219 C 137.183594 234.003906 142.625 232.792969 144.742188 238.375 Z M 144.742188 238.375 "/>
</g>
</svg>
